<svg xmlns="http://www.w3.org/2000/svg" width="50.9" height="54.5" viewBox="0 0 50.9 54.5">
  <g id="calendar_3_" data-name="calendar (3)" transform="translate(-1.75 0.25)">
    <path id="Path_1510" data-name="Path 1510" d="M51.5,3.6H45.2V.9a.9.9,0,0,0-.9-.9H38a.9.9,0,0,0-.9.9V3.6H17.3V.9a.9.9,0,0,0-.9-.9H10.1a.9.9,0,0,0-.9.9V3.6H2.9a.9.9,0,0,0-.9.9V53.1a.9.9,0,0,0,.9.9H51.5a.9.9,0,0,0,.9-.9V4.5A.9.9,0,0,0,51.5,3.6ZM38.9,1.8h4.5V7.2H38.9V1.8ZM11,1.8h4.5V7.2H11V1.8ZM3.8,5.4H9.2V8.1a.9.9,0,0,0,.9.9h6.3a.9.9,0,0,0,.9-.9V5.4H37.1V8.1A.9.9,0,0,0,38,9h6.3a.9.9,0,0,0,.9-.9V5.4h5.4v8.1H3.8Zm0,46.8V15.3H50.6V52.2Z" fill="#7f7f7f" stroke="#7f7f7f" stroke-width="0.5"/>
    <path id="Path_1511" data-name="Path 1511" d="M35.3,23H11V49.1H45.2V23H35.3ZM29,24.8h6.3v6.3H29Zm6.3,14.4H29V32.9h6.3ZM20.9,32.9h6.3v6.3H20.9Zm0-8.1h6.3v6.3H20.9Zm-8.1,0h6.3v6.3H12.8Zm0,8.1h6.3v6.3H12.8Zm6.3,14.4H12.8V41h6.3Zm8.1,0H20.9V41h6.3Zm8.1,0H29V41h6.3Zm8.1,0H37.1V41h6.3Zm0-8.1H37.1V32.9h6.3Zm0-14.4v6.3H37.1V24.8Z" transform="translate(-0.9 -2.3)" fill="#7f7f7f" stroke="#7f7f7f" stroke-width="0.5"/>
  </g>
</svg>
